<svg width="36" height="36" viewBox="0 0 36 36" fill="none" xmlns="http://www.w3.org/2000/svg">
<path d="M16.1404 16.8C16.5118 16.8 16.8144 16.4988 16.7995 16.1277C16.7203 14.1493 16.2922 12.1985 15.5331 10.366C14.6882 8.32617 13.4498 6.47278 11.8886 4.9115C10.3273 3.35031 8.47384 2.11191 6.434 1.26698C4.60149 0.507908 2.65079 0.0797939 0.672333 0.000566483C0.301241 -0.0142136 -1.33514e-05 0.288239 -1.33514e-05 0.65966V16.1275C-1.33514e-05 16.4989 0.301077 16.8 0.672495 16.8H16.1404Z" fill="#00FFFF"/>
<path d="M35.3404 16.8C35.7118 16.8 36.0144 16.4988 35.9995 16.1277C35.9203 14.1493 35.4922 12.1985 34.7331 10.366C33.8882 8.32617 32.6498 6.47278 31.0886 4.9115C29.5273 3.35031 27.6738 2.11191 25.634 1.26698C23.8015 0.507908 21.8508 0.0797939 19.8723 0.000566483C19.5013 -0.0142136 19.2 0.288239 19.2 0.65966V16.1275C19.2 16.4989 19.5011 16.8 19.8725 16.8H35.3404Z" fill="#EAEAEA"/>
<path d="M0.659606 19.2C0.288188 19.2 -0.0143683 19.5012 0.000527474 19.8723C0.0797277 21.8507 0.5078 23.8015 1.26692 25.634C2.11183 27.6738 3.35022 29.5272 4.91143 31.0885C6.47272 32.6497 8.32615 33.8881 10.366 34.733C12.1985 35.4921 14.1492 35.9202 16.1277 35.9994C16.4987 36.0142 16.8 35.7118 16.8 35.3403V19.8725C16.8 19.5011 16.4989 19.2 16.1275 19.2H0.659606Z" fill="#EAEAEA"/>
<path d="M19.8596 19.2C19.4882 19.2 19.1856 19.5012 19.2005 19.8723C19.2797 21.8507 19.7078 23.8015 20.4669 25.634C21.3118 27.6738 22.5502 29.5272 24.1114 31.0885C25.6727 32.6497 27.5262 33.8881 29.566 34.733C31.3985 35.4921 33.3492 35.9202 35.3277 35.9994C35.6988 36.0142 36 35.7118 36 35.3403V19.8725C36 19.5011 35.6989 19.2 35.3275 19.2H19.8596Z" fill="#00FFFF"/>
</svg>
